<!DOCTYPE svg PUBLIC "-//W3C//DTD SVG 1.1//EN" "http://www.w3.org/Graphics/SVG/1.1/DTD/svg11.dtd">
<!-- Uploaded to: SVG Repo, www.svgrepo.com, Transformed by: SVG Repo Mixer Tools -->
<svg width="64px" height="64px" viewBox="0 0 64.00 64.00" xmlns="http://www.w3.org/2000/svg" xmlns:xlink="http://www.w3.org/1999/xlink" aria-hidden="true" role="img" class="iconify iconify--emojione" preserveAspectRatio="xMidYMid meet" fill="#000000" stroke="#000000" stroke-width="0.00064">
<g id="SVGRepo_bgCarrier" stroke-width="0" transform="translate(0,0), scale(1)">
<rect x="0" y="0" width="64.00" height="64.00" rx="32" fill="#000000" strokewidth="0"/>
</g>
<g id="SVGRepo_tracerCarrier" stroke-linecap="round" stroke-linejoin="round" stroke="#CCCCCC" stroke-width="0.128"/>
<g id="SVGRepo_iconCarrier"> <g fill="#ffffff"> <path d="M52.1 10c-5.4-5-12.5-8-20.4-8s-15 3-20.4 8h40.8"> </path> <path d="M11.3 54c5.4 5 12.5 8 20.4 8s15-3 20.4-8H11.3"> </path> <path d="M1.7 32c0 4.3.9 8.3 2.5 12h55c1.6-3.7 2.5-7.7 2.5-12s-.9-8.3-2.5-12h-55c-1.6 3.7-2.5 7.7-2.5 12"> </path> </g> <g fill="#2686cf"> <path d="M11.4 54h40.7c3-2.8 5.5-6.2 7.1-10h-55c1.7 3.8 4.2 7.2 7.2 10"> </path> <path d="M52.1 10H11.4c-3 2.8-5.5 6.2-7.1 10h55c-1.7-3.8-4.2-7.2-7.2-10"> </path> <path d="M40.7 27h-6l-3-5l-3 5h-6l3 5l-3 5h6l3 5l3-5h6l-3-5l3-5m-9-2.1L33 27h-2.5l1.2-2.1m-6.3 3.6h2.5l-1.2 2.1l-1.3-2.1m0 7l1.2-2.1l1.2 2.1h-2.4m6.3 3.6L30.5 37H33l-1.3 2.1m2.2-3.6h-4.2L27.5 32l2.1-3.5h4.2L36 32l-2.1 3.5m4.2 0h-2.5l1.2-2.1l1.3 2.1m-1.2-5l-1.2-2.1h2.5l-1.3 2.1"> </path> </g> </g>
</svg>